<svg width="211" height="50" viewBox="0 0 211 50" fill="none" xmlns="http://www.w3.org/2000/svg">
<path d="M40 0H10C4.47715 0 0 4.47715 0 10V40C0 45.5228 4.47715 50 10 50H40C45.5228 50 50 45.5228 50 40V10C50 4.47715 45.5228 0 40 0Z" fill="#2CB1BC"/>
<path d="M17.68 28.29C17.68 29.51 17.53 30.61 17.23 31.59C16.93 32.57 16.48 33.405 15.88 34.095C15.29 34.785 14.55 35.315 13.66 35.685C12.77 36.055 11.735 36.24 10.555 36.24C10.015 36.24 9.485 36.205 8.965 36.135C8.445 36.075 7.9 35.975 7.33 35.835C7.36 35.435 7.395 35.035 7.435 34.635C7.475 34.235 7.51 33.835 7.54 33.435C7.57 33.215 7.655 33.04 7.795 32.91C7.945 32.77 8.155 32.7 8.425 32.7C8.595 32.7 8.815 32.735 9.085 32.805C9.365 32.875 9.715 32.91 10.135 32.91C10.705 32.91 11.21 32.83 11.65 32.67C12.09 32.5 12.455 32.235 12.745 31.875C13.045 31.515 13.27 31.05 13.42 30.48C13.57 29.9 13.645 29.2 13.645 28.38V14.31H17.68V28.29ZM41.5656 25.155C41.5656 26.745 41.3006 28.205 40.7706 29.535C40.2406 30.865 39.4956 32.01 38.5356 32.97C37.5756 33.93 36.4206 34.675 35.0706 35.205C33.7206 35.735 32.2206 36 30.5706 36H22.3056V14.31H30.5706C32.2206 14.31 33.7206 14.58 35.0706 15.12C36.4206 15.65 37.5756 16.395 38.5356 17.355C39.4956 18.305 40.2406 19.445 40.7706 20.775C41.3006 22.105 41.5656 23.565 41.5656 25.155ZM37.4256 25.155C37.4256 23.965 37.2656 22.9 36.9456 21.96C36.6356 21.01 36.1806 20.21 35.5806 19.56C34.9906 18.9 34.2706 18.395 33.4206 18.045C32.5806 17.695 31.6306 17.52 30.5706 17.52H26.3556V32.79H30.5706C31.6306 32.79 32.5806 32.615 33.4206 32.265C34.2706 31.915 34.9906 31.415 35.5806 30.765C36.1806 30.105 36.6356 29.305 36.9456 28.365C37.2656 27.415 37.4256 26.345 37.4256 25.155Z" fill="white"/>
<path d="M63.928 27.664C63.928 28.64 63.804 29.528 63.556 30.328C63.316 31.128 62.948 31.816 62.452 32.392C61.964 32.96 61.348 33.404 60.604 33.724C59.86 34.036 58.984 34.192 57.976 34.192C57.52 34.192 57.068 34.168 56.62 34.12C56.18 34.072 55.72 33.992 55.24 33.88L55.456 31.516C55.48 31.308 55.564 31.14 55.708 31.012C55.852 30.884 56.056 30.82 56.32 30.82C56.456 30.82 56.624 30.844 56.824 30.892C57.024 30.932 57.264 30.952 57.544 30.952C57.936 30.952 58.276 30.9 58.564 30.796C58.86 30.684 59.104 30.504 59.296 30.256C59.488 30 59.632 29.668 59.728 29.26C59.824 28.852 59.872 28.348 59.872 27.748V16.516H63.928V27.664ZM72.0976 21.364C73.0416 21.364 73.9016 21.512 74.6776 21.808C75.4536 22.104 76.1176 22.528 76.6696 23.08C77.2296 23.632 77.6616 24.304 77.9656 25.096C78.2776 25.88 78.4336 26.764 78.4336 27.748C78.4336 28.74 78.2776 29.636 77.9656 30.436C77.6616 31.228 77.2296 31.904 76.6696 32.464C76.1176 33.016 75.4536 33.444 74.6776 33.748C73.9016 34.044 73.0416 34.192 72.0976 34.192C71.1456 34.192 70.2776 34.044 69.4936 33.748C68.7176 33.444 68.0456 33.016 67.4776 32.464C66.9176 31.904 66.4816 31.228 66.1696 30.436C65.8656 29.636 65.7136 28.74 65.7136 27.748C65.7136 26.764 65.8656 25.88 66.1696 25.096C66.4816 24.304 66.9176 23.632 67.4776 23.08C68.0456 22.528 68.7176 22.104 69.4936 21.808C70.2776 21.512 71.1456 21.364 72.0976 21.364ZM72.0976 31.432C72.9536 31.432 73.5816 31.132 73.9816 30.532C74.3896 29.924 74.5936 29.004 74.5936 27.772C74.5936 26.54 74.3896 25.624 73.9816 25.024C73.5816 24.424 72.9536 24.124 72.0976 24.124C71.2176 24.124 70.5736 24.424 70.1656 25.024C69.7576 25.624 69.5536 26.54 69.5536 27.772C69.5536 29.004 69.7576 29.924 70.1656 30.532C70.5736 31.132 71.2176 31.432 72.0976 31.432ZM84.0269 30.616C84.3069 30.92 84.6109 31.136 84.9389 31.264C85.2669 31.392 85.5989 31.456 85.9349 31.456C86.2869 31.456 86.6109 31.392 86.9069 31.264C87.2029 31.128 87.4549 30.912 87.6629 30.616C87.8789 30.312 88.0469 29.916 88.1669 29.428C88.2869 28.932 88.3469 28.324 88.3469 27.604C88.3469 26.98 88.2989 26.452 88.2029 26.02C88.1149 25.58 87.9789 25.224 87.7949 24.952C87.6189 24.672 87.3949 24.472 87.1229 24.352C86.8589 24.224 86.5549 24.16 86.2109 24.16C85.7549 24.16 85.3589 24.26 85.0229 24.46C84.6869 24.66 84.3549 24.952 84.0269 25.336V30.616ZM84.0269 22.876C84.5069 22.42 85.0309 22.056 85.5989 21.784C86.1749 21.504 86.8149 21.364 87.5189 21.364C88.2229 21.364 88.8629 21.508 89.4389 21.796C90.0149 22.084 90.5069 22.496 90.9149 23.032C91.3229 23.56 91.6349 24.2 91.8509 24.952C92.0749 25.704 92.1869 26.544 92.1869 27.472C92.1869 28.48 92.0589 29.396 91.8029 30.22C91.5469 31.044 91.1829 31.752 90.7109 32.344C90.2469 32.928 89.6909 33.384 89.0429 33.712C88.3949 34.032 87.6789 34.192 86.8949 34.192C86.5189 34.192 86.1829 34.156 85.8869 34.084C85.5909 34.012 85.3189 33.912 85.0709 33.784C84.8229 33.648 84.5949 33.488 84.3869 33.304C84.1869 33.12 83.9909 32.92 83.7989 32.704L83.6669 33.328C83.6029 33.584 83.4989 33.76 83.3549 33.856C83.2109 33.952 83.0189 34 82.7789 34H80.3069V16.036H84.0269V22.876ZM115.939 25.252C115.939 26.516 115.719 27.684 115.279 28.756C114.847 29.82 114.235 30.744 113.443 31.528C112.651 32.304 111.695 32.912 110.575 33.352C109.463 33.784 108.227 34 106.867 34H100.075V16.516H106.867C108.227 16.516 109.463 16.736 110.575 17.176C111.695 17.616 112.651 18.224 113.443 19C114.235 19.776 114.847 20.7 115.279 21.772C115.719 22.836 115.939 23.996 115.939 25.252ZM111.787 25.252C111.787 24.388 111.675 23.608 111.451 22.912C111.227 22.216 110.903 21.628 110.479 21.148C110.063 20.66 109.551 20.288 108.943 20.032C108.335 19.768 107.643 19.636 106.867 19.636H104.155V30.88H106.867C107.643 30.88 108.335 30.752 108.943 30.496C109.551 30.232 110.063 29.86 110.479 29.38C110.903 28.892 111.227 28.3 111.451 27.604C111.675 26.908 111.787 26.124 111.787 25.252ZM124.039 28.936C123.295 28.968 122.683 29.032 122.203 29.128C121.723 29.224 121.343 29.344 121.063 29.488C120.783 29.632 120.587 29.796 120.475 29.98C120.371 30.164 120.319 30.364 120.319 30.58C120.319 31.004 120.435 31.304 120.667 31.48C120.899 31.648 121.239 31.732 121.687 31.732C122.167 31.732 122.587 31.648 122.947 31.48C123.307 31.312 123.671 31.04 124.039 30.664V28.936ZM117.343 23.284C118.095 22.62 118.927 22.128 119.839 21.808C120.759 21.48 121.743 21.316 122.791 21.316C123.543 21.316 124.219 21.44 124.819 21.688C125.427 21.928 125.939 22.268 126.355 22.708C126.779 23.14 127.103 23.656 127.327 24.256C127.551 24.856 127.663 25.512 127.663 26.224V34H125.959C125.607 34 125.339 33.952 125.155 33.856C124.979 33.76 124.831 33.56 124.711 33.256L124.447 32.572C124.135 32.836 123.835 33.068 123.547 33.268C123.259 33.468 122.959 33.64 122.647 33.784C122.343 33.92 122.015 34.02 121.663 34.084C121.319 34.156 120.935 34.192 120.511 34.192C119.943 34.192 119.427 34.12 118.963 33.976C118.499 33.824 118.103 33.604 117.775 33.316C117.455 33.028 117.207 32.672 117.031 32.248C116.855 31.816 116.767 31.32 116.767 30.76C116.767 30.312 116.879 29.86 117.103 29.404C117.327 28.94 117.715 28.52 118.267 28.144C118.819 27.76 119.563 27.44 120.499 27.184C121.435 26.928 122.615 26.784 124.039 26.752V26.224C124.039 25.496 123.887 24.972 123.583 24.652C123.287 24.324 122.863 24.16 122.311 24.16C121.871 24.16 121.511 24.208 121.231 24.304C120.951 24.4 120.699 24.508 120.475 24.628C120.259 24.748 120.047 24.856 119.839 24.952C119.631 25.048 119.383 25.096 119.095 25.096C118.839 25.096 118.623 25.032 118.447 24.904C118.271 24.776 118.127 24.624 118.015 24.448L117.343 23.284ZM133.845 21.556V34H130.125V21.556H133.845ZM134.229 18.148C134.229 18.444 134.169 18.724 134.049 18.988C133.929 19.244 133.765 19.472 133.557 19.672C133.349 19.864 133.105 20.02 132.825 20.14C132.553 20.252 132.261 20.308 131.949 20.308C131.645 20.308 131.361 20.252 131.097 20.14C130.833 20.02 130.597 19.864 130.389 19.672C130.189 19.472 130.029 19.244 129.909 18.988C129.797 18.724 129.741 18.444 129.741 18.148C129.741 17.844 129.797 17.56 129.909 17.296C130.029 17.032 130.189 16.8 130.389 16.6C130.597 16.4 130.833 16.244 131.097 16.132C131.361 16.02 131.645 15.964 131.949 15.964C132.261 15.964 132.553 16.02 132.825 16.132C133.105 16.244 133.349 16.4 133.557 16.6C133.765 16.8 133.929 17.032 134.049 17.296C134.169 17.56 134.229 17.844 134.229 18.148ZM139.92 23.476C140.304 22.804 140.744 22.276 141.24 21.892C141.744 21.508 142.32 21.316 142.968 21.316C143.528 21.316 143.984 21.448 144.336 21.712L144.096 24.448C144.056 24.624 143.988 24.744 143.892 24.808C143.804 24.872 143.68 24.904 143.52 24.904C143.456 24.904 143.372 24.9 143.268 24.892C143.164 24.884 143.056 24.876 142.944 24.868C142.832 24.852 142.716 24.84 142.596 24.832C142.484 24.816 142.38 24.808 142.284 24.808C141.74 24.808 141.304 24.952 140.976 25.24C140.656 25.528 140.384 25.928 140.16 26.44V34H136.44V21.556H138.648C138.832 21.556 138.984 21.572 139.104 21.604C139.232 21.636 139.336 21.688 139.416 21.76C139.504 21.824 139.568 21.912 139.608 22.024C139.656 22.136 139.696 22.272 139.728 22.432L139.92 23.476ZM157.424 21.556L150.776 37.228C150.664 37.476 150.528 37.656 150.368 37.768C150.208 37.888 149.952 37.948 149.6 37.948H146.816L149.216 32.908L144.248 21.556H147.536C147.824 21.556 148.044 21.62 148.196 21.748C148.356 21.876 148.472 22.028 148.544 22.204L150.584 27.568C150.776 28.056 150.932 28.556 151.052 29.068C151.14 28.812 151.228 28.556 151.316 28.3C151.404 28.044 151.496 27.792 151.592 27.544L153.44 22.204C153.512 22.02 153.64 21.868 153.824 21.748C154.008 21.62 154.208 21.556 154.424 21.556H157.424ZM170.063 25.096C171.119 25.096 171.879 24.844 172.343 24.34C172.807 23.836 173.039 23.132 173.039 22.228C173.039 21.828 172.979 21.464 172.859 21.136C172.739 20.808 172.555 20.528 172.307 20.296C172.067 20.056 171.759 19.872 171.383 19.744C171.015 19.616 170.575 19.552 170.063 19.552H167.951V25.096H170.063ZM170.063 16.516C171.295 16.516 172.351 16.664 173.231 16.96C174.119 17.248 174.847 17.648 175.415 18.16C175.991 18.672 176.415 19.276 176.687 19.972C176.959 20.668 177.095 21.42 177.095 22.228C177.095 23.1 176.955 23.9 176.675 24.628C176.395 25.356 175.967 25.98 175.391 26.5C174.815 27.02 174.083 27.428 173.195 27.724C172.315 28.012 171.271 28.156 170.063 28.156H167.951V34H163.895V16.516H170.063ZM182.037 23.476C182.421 22.804 182.861 22.276 183.357 21.892C183.861 21.508 184.437 21.316 185.085 21.316C185.645 21.316 186.101 21.448 186.453 21.712L186.213 24.448C186.173 24.624 186.105 24.744 186.009 24.808C185.921 24.872 185.797 24.904 185.637 24.904C185.573 24.904 185.489 24.9 185.385 24.892C185.281 24.884 185.173 24.876 185.061 24.868C184.949 24.852 184.833 24.84 184.713 24.832C184.601 24.816 184.497 24.808 184.401 24.808C183.857 24.808 183.421 24.952 183.093 25.24C182.773 25.528 182.501 25.928 182.277 26.44V34H178.557V21.556H180.765C180.949 21.556 181.101 21.572 181.221 21.604C181.349 21.636 181.453 21.688 181.533 21.76C181.621 21.824 181.685 21.912 181.725 22.024C181.773 22.136 181.813 22.272 181.845 22.432L182.037 23.476ZM193.246 21.364C194.19 21.364 195.05 21.512 195.826 21.808C196.602 22.104 197.266 22.528 197.818 23.08C198.378 23.632 198.81 24.304 199.114 25.096C199.426 25.88 199.582 26.764 199.582 27.748C199.582 28.74 199.426 29.636 199.114 30.436C198.81 31.228 198.378 31.904 197.818 32.464C197.266 33.016 196.602 33.444 195.826 33.748C195.05 34.044 194.19 34.192 193.246 34.192C192.294 34.192 191.426 34.044 190.642 33.748C189.866 33.444 189.194 33.016 188.626 32.464C188.066 31.904 187.63 31.228 187.318 30.436C187.014 29.636 186.862 28.74 186.862 27.748C186.862 26.764 187.014 25.88 187.318 25.096C187.63 24.304 188.066 23.632 188.626 23.08C189.194 22.528 189.866 22.104 190.642 21.808C191.426 21.512 192.294 21.364 193.246 21.364ZM193.246 31.432C194.102 31.432 194.73 31.132 195.13 30.532C195.538 29.924 195.742 29.004 195.742 27.772C195.742 26.54 195.538 25.624 195.13 25.024C194.73 24.424 194.102 24.124 193.246 24.124C192.366 24.124 191.722 24.424 191.314 25.024C190.906 25.624 190.702 26.54 190.702 27.772C190.702 29.004 190.906 29.924 191.314 30.532C191.722 31.132 192.366 31.432 193.246 31.432Z" fill="#2CB1BC"/>
</svg>
