<svg width="60" height="60" viewBox="0 0 60 60" fill="none" xmlns="http://www.w3.org/2000/svg">
<g filter="url(#filter0_d_3_11)">
<path d="M45 1H15C9.47715 1 5 5.47715 5 11V41C5 46.5228 9.47715 51 15 51H45C50.5228 51 55 46.5228 55 41V11C55 5.47715 50.5228 1 45 1Z" fill="#BF95F9"/>
<path d="M6.79864 4.4441C6.93652 4.26114 7.17136 4.03709 7.35689 3.84263C8.1477 3.03995 8.49542 2.79422 9.34348 2.23756C9.97058 1.8242 11.3187 1.1346 12.6025 0.872668C13.8809 0.585196 15.0037 0.664386 15 0.773193C15 0.773199 15 0.773205 15 0.77321C15 0.775419 14.9996 0.777654 14.9987 0.779914C14.9824 0.821258 14.6123 0.875006 14.5611 0.927602C14.5102 0.980626 14.5594 1.28217 14.063 1.34251C13.334 1.38918 11.6228 1.79137 11.2725 1.98162C11.0262 2.08594 10.7394 2.24876 10.4417 2.41316C9.491 2.95585 9.01066 3.2956 8.34211 4.019C8.02989 4.26048 7.73057 4.52258 7.44669 4.80396C7.12652 5.21101 6.649 5.83893 6.49889 6.11876C6.37228 6.34564 6.32964 6.49426 6.21231 6.73678C6.08237 7.00802 5.8595 7.42024 5.69291 7.94595C5.43321 8.81262 5.50369 8.99237 5.4226 9.52187C5.36958 9.91123 5.2962 10.458 5.29558 11C5.2947 11.2282 5.29694 11.4547 5.30555 11.6676C5.31481 11.7594 5.32406 11.8513 5.33332 11.9431C5.35426 11.8773 5.37519 11.8115 5.39613 11.7457C5.40587 12.1145 5.36297 12.2731 5.36219 12.612C5.36125 13.0107 5.40193 13.2141 5.40174 13.4824C5.40155 13.7022 5.36894 14.0002 5.37098 14.2852C5.37379 14.7006 5.42088 14.6098 5.4297 14.8334C5.43312 14.9226 5.45911 16.5718 5.45948 16.6649C5.46134 17.3725 5.39688 17.4342 5.39124 17.9984C5.37587 19.5635 5.42796 21.17 5.44764 22.6177C5.45645 23.2641 5.4527 23.9386 5.44239 24.5831C5.27742 23.5679 5.14904 25.8147 5.40717 24.9744C5.37045 25.6915 5.44014 26.2 5.42835 26.8799C5.42067 27.3196 5.38487 27.6239 5.38581 28.2518C5.3877 29.3659 5.48944 30.5845 5.30555 30.9049C5.33797 32.2127 5.27126 33.3455 5.4336 33.8168C5.44352 34.1541 5.34682 35.0183 5.33369 35.3966C5.32131 35.7543 5.27765 38.499 5.27522 38.948C5.27278 39.397 5.27013 40.183 5.28437 40.5612C5.29008 40.7151 5.31158 40.8539 5.33138 41C5.37463 41.2982 5.41223 41.6125 5.34423 42.1792C5.49155 43.1238 5.57152 43.4567 5.83645 44.3063C5.88773 44.4591 5.86775 44.4867 5.90198 44.5748C5.97283 44.7561 6.12131 45.0531 6.27949 45.3615C6.5399 45.8679 6.67052 46.1717 6.71498 46.0694C6.92433 46.3807 7.15098 46.6787 7.39366 46.9623C7.46016 47.0764 7.52915 47.1894 7.60072 47.3013C7.7458 47.441 7.89476 47.5758 8.04732 47.7055C7.77408 47.6425 8.85939 48.555 8.57554 48.1834C9.09381 48.6851 9.67051 49.1307 10.2927 49.5078C10.1149 49.6228 11.7337 50.2125 11.6344 50.0526C11.712 50.0816 11.7893 50.1093 11.8674 50.1362C12.5405 50.4061 13.201 50.5327 14.0769 50.6473C14.7535 50.725 14.8625 50.7214 15 50.763C15.0423 50.7744 15.0872 50.7878 15.1516 50.8043C15.3664 50.8002 15.5812 50.7962 15.796 50.7921C16.9232 50.5973 16.724 50.9346 18.6542 50.7851C19.2709 50.9076 20.7911 50.8433 21.799 50.8061C21.9163 50.8018 21.9183 50.7781 22.0745 50.7707C22.4564 50.7531 23.431 50.7837 23.3976 50.707C23.735 50.7292 24.0723 50.7514 24.4096 50.7736C24.6854 50.7596 24.9611 50.7457 25.2368 50.7317C25.2354 50.7078 25.234 50.6839 25.2326 50.66C25.7879 50.7415 26.6603 50.7102 27.0907 50.7297C27.1763 50.7336 27.1948 50.7666 27.461 50.7756C27.7722 50.7863 28.352 50.7765 28.7227 50.7869C28.8669 50.7503 29.011 50.7137 29.1551 50.6772C29.8182 50.6573 30.0512 50.7538 30.4406 50.7613C30.5107 50.7626 31.7896 50.7557 31.8585 50.7537C32.4226 50.7373 32.2628 50.6551 33.8944 50.6727C34.1849 50.6759 34.4199 50.7044 34.6825 50.7055C35.1464 50.7076 36.5443 50.643 36.6542 50.5834C37.2169 50.658 38.7223 50.6275 39.1658 50.6491C39.2996 50.6557 39.3298 50.7033 39.7412 50.7134C40.0747 50.7216 40.9335 50.6836 41.3565 50.6899C41.8055 50.6969 41.9658 50.7368 42.1669 50.7396C42.357 50.7422 42.5322 50.71 42.7912 50.7102C43.5996 50.7113 44.3317 50.7632 44.9707 50.7642C44.9805 50.7642 44.9903 50.7642 45 50.7642C45.895 50.7626 46.6673 50.5544 47.3683 50.3345C47.549 50.2951 47.7298 50.2653 47.9149 50.207C50.2244 49.5178 52.4588 47.6752 53.58 45.52C54.2293 44.5753 54.8611 41.8054 54.5004 42.5118C54.5112 42.3425 54.6123 41.71 54.6231 41C54.6407 40.0597 54.6684 39.0014 54.6691 38.689C54.6704 38.1321 54.6317 37.6907 54.6311 37.253C54.6294 35.932 54.6573 35.0018 54.6236 33.3939C54.6148 32.9786 54.5689 32.5337 54.5694 32.2877C54.5701 31.9915 54.6145 31.6727 54.6174 31.289C54.6237 30.3742 54.6091 28.6695 54.6168 27.7919C54.6183 27.6317 54.6573 27.5754 54.6695 27.3462C54.7171 26.4538 54.713 25.4535 54.5885 25.6305C54.6592 24.4866 54.5947 23.4285 54.5908 22.3685C54.5827 20.1271 54.6117 16.0443 54.5594 14.0917C54.5264 12.8606 54.4706 12.8921 54.5188 11.0794C54.5195 11.0529 54.5202 11.0265 54.5209 11C54.5308 10.6401 54.5272 10.2783 54.4874 9.8437C54.3896 8.75945 54.1687 7.74154 53.7062 7.03179C53.2241 5.91083 52.6212 5.13883 52.0826 4.39982C51.9905 4.33848 51.8978 4.27899 51.8044 4.22135C51.6983 4.11578 51.5898 4.01268 51.479 3.91215C51.4609 3.8627 51.4424 3.81329 51.4234 3.76388C50.6254 3.02472 49.3835 2.41103 48.5412 2.09238C47.8144 1.78916 46.4115 1.38989 45 1.39073C43.6535 1.37704 42.3401 1.35992 41.6197 1.34419C40.8225 1.32676 40.7796 1.37884 40.3231 1.2718C40.1448 1.27924 39.9665 1.28669 39.7882 1.29414C39.6766 1.31757 39.565 1.34101 39.4534 1.36445C38.4306 1.36539 37.2174 1.32898 36.243 1.32935C34.4674 1.3301 31.8012 1.39461 30.0182 1.35224C29.5711 1.34156 29.0123 1.29322 28.5745 1.29377C27.9373 1.29452 27.7824 1.37473 26.9738 1.37623C25.5802 1.37867 22.9848 1.28549 21.6675 1.29261C21.2763 1.29467 21.0937 1.32452 20.8236 1.32771C19.6908 1.34139 18.7608 1.33896 17.6746 1.38508C16.5083 1.30822 16.609 1.209 16.2476 1.10889C15.9736 1.03334 15.1337 0.858235 15.0145 0.79206C14.9307 0.745569 15.2434 0.685764 15.126 0.634589C16.5234 0.593722 17.1104 0.638712 18.2451 0.7107C20.3405 0.707832 22.4359 0.704963 24.5313 0.702094C24.7219 0.730028 24.9126 0.757962 25.1032 0.785896C25.1032 0.785957 25.1032 0.786018 25.1032 0.786079C25.9079 0.818316 26.249 0.746378 26.6829 0.730049C30.8377 0.573697 39.0153 0.696069 43.5893 0.713691C43.8941 0.71485 44.4111 0.712052 45 0.708975C46.3613 0.666055 48.0531 1.11674 48.4832 1.33068C48.6482 1.40345 48.6798 1.46148 48.8553 1.5343C50.441 2.15157 51.871 3.17719 52.9744 4.48844C54.4136 6.30478 55.2691 8.63831 55.2739 11C55.2813 12.1923 55.29 13.3823 55.2936 14.5618C55.3202 23.4494 55.3522 32.2525 55.3463 41C55.346 41.4526 55.3168 41.9009 55.2579 42.3491C55.059 44.1774 54.0929 46.391 52.874 47.7246C52.3694 48.2814 52.1114 48.462 51.3826 49.1206C51.363 49.1124 51.3434 49.1041 51.3238 49.0957C50.6604 49.6305 50.2157 49.9665 49.3481 50.3858C48.6341 50.7891 46.5347 51.3198 45.8117 51.3094C45.4399 51.3309 45.5766 51.2887 45.232 51.3C45.1634 51.3016 45.0855 51.3034 45 51.3046C44.3719 51.3137 43.3327 51.3513 42.6328 51.3513C41.9155 51.3513 40.7063 51.3112 40.1548 51.317C38.1687 51.3376 36.0053 51.3971 33.8888 51.3812C33.3041 51.3766 32.5521 51.3315 32.369 51.3328C32.0114 51.3354 31.9048 51.3792 31.6646 51.3849C30.4443 51.4134 28.5421 51.3613 27.3459 51.3592C23.4482 51.3524 19.3191 51.3716 15.4382 51.3635C15.2973 51.3632 15.151 51.363 15 51.3628C12.3872 51.5262 8.69343 49.7132 7.33896 47.9343C7.01054 47.5515 7.13533 47.622 6.87295 47.2927C6.58824 46.9229 6.42411 46.7275 6.30292 46.545C5.45978 45.4398 4.53899 42.6159 4.66134 41C4.66334 40.8436 4.66584 40.7001 4.66889 40.5724C4.67526 40.308 4.71291 40.1162 4.71278 39.9579C4.71278 39.8778 4.68708 39.6968 4.68446 39.4453C4.66121 37.2244 4.67619 35.6052 4.685 33.429C4.70169 29.2613 4.65389 24.4321 4.67976 20.0538C4.68538 19.0999 4.75985 18.4457 4.7591 18.3116C4.7576 18.0172 4.70751 17.8288 4.69514 17.2326C4.65661 15.3549 4.70254 12.8604 4.68615 11C4.68524 10.8926 4.68578 10.7876 4.68752 10.6852C4.68894 9.7267 4.87465 8.39744 5.19741 7.49627C5.40264 6.75291 6.3245 5.19856 6.52876 4.92872C6.63556 4.75247 6.64948 4.64281 6.79864 4.4441ZM5.344 28.9206C5.25739 28.7902 5.32937 30.1609 5.37586 29.6467C5.38633 29.5309 5.36649 28.9544 5.344 28.9206ZM50.854 48.8682C50.8293 48.8557 50.8047 48.8431 50.7802 48.8305C50.6456 48.9428 50.5074 49.052 50.3665 49.1572C50.4571 49.1153 50.5474 49.0718 50.6371 49.0269C50.7101 48.9749 50.7824 48.922 50.854 48.8682Z" fill="#BF95F9" fill-opacity="0.1"/>
<path d="M22.68 29.29C22.68 30.51 22.53 31.61 22.23 32.59C21.93 33.57 21.48 34.405 20.88 35.095C20.29 35.785 19.55 36.315 18.66 36.685C17.77 37.055 16.735 37.24 15.555 37.24C15.015 37.24 14.485 37.205 13.965 37.135C13.445 37.075 12.9 36.975 12.33 36.835C12.36 36.435 12.395 36.035 12.435 35.635C12.475 35.235 12.51 34.835 12.54 34.435C12.57 34.215 12.655 34.04 12.795 33.91C12.945 33.77 13.155 33.7 13.425 33.7C13.595 33.7 13.815 33.735 14.085 33.805C14.365 33.875 14.715 33.91 15.135 33.91C15.705 33.91 16.21 33.83 16.65 33.67C17.09 33.5 17.455 33.235 17.745 32.875C18.045 32.515 18.27 32.05 18.42 31.48C18.57 30.9 18.645 30.2 18.645 29.38V15.31H22.68V29.29ZM46.5656 26.155C46.5656 27.745 46.3006 29.205 45.7706 30.535C45.2406 31.865 44.4956 33.01 43.5356 33.97C42.5756 34.93 41.4206 35.675 40.0706 36.205C38.7206 36.735 37.2206 37 35.5706 37H27.3056V15.31H35.5706C37.2206 15.31 38.7206 15.58 40.0706 16.12C41.4206 16.65 42.5756 17.395 43.5356 18.355C44.4956 19.305 45.2406 20.445 45.7706 21.775C46.3006 23.105 46.5656 24.565 46.5656 26.155ZM42.4256 26.155C42.4256 24.965 42.2656 23.9 41.9456 22.96C41.6356 22.01 41.1806 21.21 40.5806 20.56C39.9906 19.9 39.2706 19.395 38.4206 19.045C37.5806 18.695 36.6306 18.52 35.5706 18.52H31.3556V33.79H35.5706C36.6306 33.79 37.5806 33.615 38.4206 33.265C39.2706 32.915 39.9906 32.415 40.5806 31.765C41.1806 31.105 41.6356 30.305 41.9456 29.365C42.2656 28.415 42.4256 27.345 42.4256 26.155Z" fill="white"/>
<path d="M23.1793 26.3731C23.1853 26.444 23.1528 26.5441 23.1511 26.6277C23.1436 26.9781 23.1211 27.1079 23.1084 27.4249C23.0895 27.895 23.1321 29.29 22.9068 29.29C22.9068 29.29 22.9068 29.29 22.9068 29.29C22.9046 29.29 22.9023 29.2899 22.9001 29.2896C22.8572 29.2847 22.8103 29.1661 22.7618 29.1484C22.7132 29.1309 22.3998 29.1441 22.3821 28.9755C22.3589 28.7312 22.4393 28.145 22.4357 28.0147C22.4333 27.9256 22.4048 27.8159 22.3997 27.702C22.3834 27.3347 22.4042 27.1425 22.3268 26.8116C22.3676 26.6792 22.4084 26.5468 22.4492 26.4144C22.4303 26.2417 22.4841 25.98 22.4811 25.875C22.4787 25.789 22.4464 25.7385 22.4449 25.6488C22.4431 25.5482 22.4779 25.3936 22.4727 25.2106C22.4642 24.9105 22.3801 24.8571 22.3694 24.6771C22.3583 24.4904 22.4041 24.2 22.3744 23.9618C22.3652 23.9319 22.3559 23.9021 22.3467 23.8722C22.3257 23.8936 22.3048 23.915 22.2839 23.9364C22.2741 23.8164 22.317 23.7648 22.3178 23.6546C22.3187 23.5248 22.2781 23.4586 22.2783 23.3714C22.2784 23.2998 22.3111 23.2029 22.309 23.1102C22.3062 22.975 22.2591 23.0045 22.2503 22.9318C22.2469 22.9028 22.2209 22.3662 22.2205 22.3359C22.2187 22.1056 22.2831 22.0856 22.2888 21.902C22.3041 21.3928 22.252 20.8701 22.2324 20.3991C22.2236 20.1887 22.2273 19.9693 22.2376 19.7596C22.4026 20.0899 22.531 19.3589 22.2728 19.6323C22.3095 19.399 22.2399 19.2335 22.2516 19.0123C22.2593 18.8693 22.2951 18.7702 22.2942 18.566C22.2923 18.2035 22.1906 17.807 22.3744 17.7027C22.342 17.2772 22.4087 16.9087 22.2464 16.7553C22.2365 16.6456 22.3332 16.3644 22.3463 16.2413C22.3556 16.1539 22.3826 15.6281 22.3964 15.31L22.68 15.5936C22.5747 15.589 22.4922 15.5858 22.4558 15.5852C22.3097 15.5828 22.054 15.5801 21.9309 15.5944C21.7764 15.612 21.6683 15.7804 21.3931 15.5835C21.0731 15.5994 20.9591 15.5938 20.6615 15.5709C20.6076 15.5668 20.6015 15.5376 20.5701 15.5375C20.5052 15.5375 20.3949 15.5591 20.2791 15.5618C20.0888 15.5661 19.9802 15.5046 20.0014 15.5985C19.8759 15.6143 19.7504 15.63 19.6249 15.6458C19.5809 15.6276 19.5369 15.6095 19.4928 15.5914C19.4257 15.6111 19.3586 15.6309 19.2916 15.6506C19.3704 15.5147 18.8981 15.5949 19.0515 15.6729C18.916 15.6573 18.7805 15.6416 18.645 15.6259L18.9609 15.31C18.9485 15.4178 18.936 15.5256 18.9236 15.6333C18.7691 15.5994 18.9057 16.1675 18.9897 16.1196C18.9896 16.1475 18.9895 16.1753 18.9894 16.2031C18.9483 16.4468 18.9819 16.6706 18.9543 16.9677C18.9268 17.2647 18.9117 17.2368 18.8407 17.3271C18.8448 17.397 18.8488 17.4669 18.8529 17.5368C19.0477 17.9035 18.7104 17.8387 18.8599 18.4667C18.7374 18.6674 18.8017 19.162 18.8389 19.4899C18.8432 19.5281 18.8669 19.5288 18.8743 19.5796C18.8919 19.7038 18.8613 20.0209 18.938 20.0101C18.9158 20.1198 18.8936 20.2296 18.8714 20.3393C18.8854 20.429 18.8993 20.5188 18.9133 20.6085C18.9372 20.608 18.9611 20.6076 18.985 20.6071C18.9035 20.7878 18.9348 21.0716 18.9153 21.2116C18.9114 21.2395 18.8784 21.2455 18.8694 21.3321C18.8587 21.4334 18.8685 21.622 18.8581 21.7426C18.8947 21.7895 18.9313 21.8364 18.9678 21.8833C18.9877 22.0991 18.8912 22.1749 18.8837 22.3016C18.8824 22.3244 18.8893 22.7405 18.8913 22.7629C18.9077 22.9465 18.9899 22.8945 18.9723 23.4253C18.9691 23.5198 18.9406 23.5963 18.9395 23.6817C18.9374 23.8327 19.002 24.2875 19.0616 24.3233C18.987 24.5063 19.0175 24.9961 18.9959 25.1404C18.9893 25.184 18.9417 25.1938 18.9316 25.3276C18.9234 25.4361 18.9614 25.7156 18.9551 25.8532C18.9481 25.9993 18.9082 26.0514 18.9054 26.1169C18.9028 26.1787 18.935 26.2357 18.9348 26.32C18.9337 26.583 18.8818 26.8212 18.8808 27.0291C18.8793 27.3298 18.9748 27.5954 19.0171 27.847C19.011 27.9094 18.9905 27.9708 18.9903 28.0362C18.9887 28.4652 18.983 28.9233 18.975 29.38C18.9679 29.7954 18.9398 30.2116 18.8856 30.6039C18.8558 30.8432 18.7285 31.2904 18.6708 31.5448C18.6357 31.7053 18.6392 31.7963 18.7489 31.721C18.7744 31.8758 18.2674 32.8068 18.1087 32.9473C18.0712 32.9973 18.0375 33.0456 18.0053 33.0919C17.9387 33.1921 17.8759 33.2882 17.7957 33.3674C17.487 33.6638 17.2028 33.8253 16.7819 34.0115C16.7115 34.0399 16.6445 34.0658 16.5731 34.092C16.4333 34.1438 16.2877 34.2241 16.2005 34.2408C16.0955 34.2611 15.9763 34.2364 15.8422 34.2504C15.6598 34.2704 15.3892 34.293 15.135 34.2942C14.945 34.2959 14.761 34.2887 14.6291 34.2748C14.5731 34.2687 14.5568 34.2284 14.4783 34.2078C14.3127 34.1642 14.1353 34.1214 14.0099 34.1053C13.9176 34.095 13.8625 34.1157 13.8731 34.1765C13.7154 34.1029 13.5503 34.0746 13.425 34.0827C13.2929 34.0902 13.1911 34.1312 13.1297 34.1689C13.1099 34.1807 13.092 34.1939 13.0751 34.2101C13.0145 34.2678 12.9669 34.3469 12.946 34.4904L12.9486 34.4656C12.9176 34.8618 12.8778 35.294 12.8452 35.676C12.8216 35.9537 12.8075 36.2049 12.8072 36.3948C12.8069 36.6255 12.8265 36.7206 12.8248 36.8721L12.4484 36.3531C12.5546 36.3716 12.6872 36.4061 12.9175 36.4756C13.0391 36.512 13.1598 36.5506 13.3086 36.5902C13.5578 36.6565 13.7902 36.7496 14.0082 36.7607C14.1015 36.7677 14.1855 36.7608 14.2665 36.7344C14.6594 36.8104 14.977 36.8042 15.2722 36.9178C15.308 36.8932 15.3436 36.8684 15.3789 36.8434C15.428 36.8435 15.4771 36.8433 15.5261 36.8427C15.5357 36.858 15.5453 36.8733 15.555 36.8886C15.5607 36.8977 15.5664 36.9067 15.5722 36.9157C15.9265 36.9233 16.3644 36.797 16.6534 36.7625C17.0624 36.7285 17.9924 36.5596 18.5215 36.3518C18.6283 36.3135 18.7205 36.2779 18.7922 36.2502C19.0217 36.1592 19.0065 36.1053 19.1822 36.1317C19.227 36.0983 19.2713 36.0643 19.3149 36.0297C19.3326 35.9919 19.3497 35.9541 19.3664 35.9162C19.6316 35.7528 19.9499 35.5578 20.17 35.3551C20.3133 35.2246 20.4686 35.0563 20.6165 34.8697C20.8913 34.5324 21.1333 34.1378 21.3264 33.841C21.4024 33.7261 21.5241 33.5929 21.5812 33.4684C21.6633 33.2868 21.6096 33.2116 21.699 32.9785C21.7497 32.8442 21.8206 32.6731 21.8914 32.4863C22.0352 32.1128 22.1715 31.6736 22.2139 31.3985C22.2332 31.2762 22.2126 31.2143 22.2222 31.1297C22.2611 30.7742 22.2929 30.4809 22.269 30.1355C22.3667 29.7721 22.4611 29.8059 22.5655 29.6929C22.6443 29.6075 22.8224 29.3351 22.8879 29.2948C22.9345 29.2669 22.9941 29.371 23.0454 29.3321C23.0828 29.7983 23.0277 29.9962 22.9288 30.3673C22.8777 31.0627 22.7698 31.758 22.5847 32.4375C22.5407 32.4917 22.4962 32.5453 22.4512 32.5982C22.4511 32.5982 22.4511 32.5982 22.451 32.5982C22.4431 32.6165 22.4359 32.634 22.4293 32.651C22.3463 32.864 22.3692 32.9852 22.337 33.1178C22.1885 33.7341 21.7905 34.5955 21.1415 35.3224C20.4749 36.1059 19.5307 36.6645 18.7719 36.9542C18.6576 36.9994 18.5472 37.0395 18.4422 37.0754C18.132 37.2058 17.075 37.4704 16.8415 37.4365C16.7819 37.4321 16.7603 37.3913 16.6986 37.3964C16.3199 37.4568 15.938 37.4934 15.555 37.5111C15.3836 37.519 15.2119 37.5235 15.0399 37.5244C14.6717 37.4877 14.3011 37.447 13.93 37.3953C13.3728 37.3284 12.8117 37.2352 12.2622 37.111L12.0324 37.0586L12.0466 36.8137C12.0586 36.6014 12.0723 36.3897 12.0889 36.1793C12.1041 35.9878 12.1203 35.7964 12.1376 35.6053C12.1736 35.2073 12.2045 34.8094 12.2306 34.4118L12.2326 34.3931C12.2611 34.1488 12.3715 33.8704 12.5801 33.6786C12.827 33.4435 13.1583 33.3788 13.425 33.3781C13.7037 33.3795 13.9363 33.4318 14.1672 33.488C14.4635 33.5581 14.7994 33.5765 15.135 33.5746C15.6208 33.5711 16.0996 33.5066 16.5325 33.3469C16.9016 33.2035 17.2263 32.9681 17.4748 32.6573C17.7264 32.3553 17.9038 31.9875 18.028 31.595C18.0485 31.5302 18.0677 31.4623 18.0855 31.392C18.208 30.9091 18.2472 30.3123 18.282 29.8363C18.2952 29.6575 18.3409 29.5604 18.335 29.38C18.3333 29.3295 18.3278 29.2726 18.3167 29.206C18.3353 29.2028 18.354 29.1995 18.3726 29.1963C18.3501 28.9259 18.3077 28.7532 18.3034 28.4501C18.2998 28.1949 18.2971 27.5197 18.3042 27.2942C18.3077 27.1772 18.3426 27.2208 18.3424 27.1117C18.3418 26.925 18.2937 26.5261 18.2937 26.2685C18.2937 26.0351 18.3338 25.6416 18.328 25.4622C18.3074 24.816 18.2479 24.1121 18.2638 23.4235C18.2684 23.2333 18.3135 22.9886 18.3122 22.929C18.3096 22.8127 18.2658 22.778 18.2601 22.6998C18.2316 22.3028 18.2837 21.6839 18.2858 21.2947C18.2926 20.0265 18.2734 18.6831 18.2815 17.4204C18.2851 16.8506 18.2822 16.0114 18.2923 15.31L18.2864 14.9633L18.645 14.9573C18.9256 14.9613 19.1841 14.9674 19.3946 14.9768C19.5534 14.9839 19.5111 15.032 19.6444 15.032C19.7923 15.032 19.8724 14.9995 19.9415 14.9969C20.4198 14.9785 21.4757 14.9457 21.9273 14.9789C22.0133 14.9853 22.0757 15.0229 22.1272 15.0228C22.1533 15.0228 22.2122 14.9971 22.294 14.9945C22.4287 14.9901 22.5565 14.9871 22.68 14.9852L22.9993 14.9798L23.0048 15.31C23.0134 15.8492 23.0022 16.3054 22.995 16.8815C22.9783 18.2375 23.0261 19.8087 23.0002 21.2333C22.9946 21.5436 22.9201 21.7565 22.9209 21.8001C22.9224 21.8959 22.9725 21.9572 22.9849 22.1512C23.0255 22.7961 22.9721 23.6647 22.9972 24.2782C23.0096 24.5812 23.0732 24.9977 23.0872 25.2959C23.0985 25.5341 23.0735 26.0967 23.1014 26.2023C23.1183 26.2665 23.1725 26.2962 23.1793 26.3731ZM22.336 18.3483C22.4226 18.3908 22.3506 17.9448 22.3041 18.1121C22.2937 18.1498 22.3135 18.3374 22.336 18.3483ZM18.8386 29.12C18.8634 29.1159 18.8881 29.1119 18.9128 29.1078C18.9025 29.0492 18.8922 28.9907 18.8819 28.9321C18.8671 28.965 18.8522 28.9979 18.8373 29.0308C18.8378 29.0606 18.8382 29.0903 18.8386 29.12ZM46.5464 22.4825C46.5786 22.5679 46.5831 22.7 46.6093 22.8037C46.7166 23.2387 46.7291 23.4058 46.7908 23.8042C46.9143 24.3912 47.0389 26.1589 46.7924 26.155C46.7924 26.155 46.7924 26.155 46.7924 26.155C46.7902 26.155 46.788 26.1548 46.7857 26.1545C46.743 26.1481 46.6953 26.0015 46.6463 25.9804C46.5973 25.9595 46.2852 25.9787 46.2626 25.7777C46.237 25.4861 46.2601 24.7797 46.2332 24.6239C46.2181 24.5178 46.1728 24.3911 46.1475 24.257C46.0637 23.826 46.0372 23.5945 45.8689 23.2307C45.8704 23.0684 45.8681 22.9053 45.8619 22.7415C45.786 22.5484 45.7357 22.2342 45.6884 22.1165C45.6503 22.0201 45.5986 21.975 45.5577 21.8757C45.5559 21.8713 45.554 21.8667 45.5522 21.862C45.5084 21.7495 45.4694 21.5709 45.3773 21.3804C45.2183 21.0558 45.1116 21.0381 45.0033 20.8535C44.8906 20.6627 44.7574 20.3398 44.5773 20.1183C44.5502 20.0936 44.523 20.069 44.4957 20.0447C44.4923 20.0774 44.4887 20.11 44.485 20.1426C44.3994 20.03 44.4008 19.9559 44.3266 19.8487C44.2389 19.7231 44.1594 19.6849 44.0978 19.6031C44.0473 19.5363 44.0027 19.4262 43.932 19.3427C43.8287 19.2214 43.8145 19.2788 43.7528 19.2195C43.7318 19.1919 43.2877 18.7487 43.2589 18.7279C43.2421 18.7113 43.2269 18.6957 43.2131 18.6809C43.069 18.5268 43.0793 18.4624 42.9376 18.3255C42.5042 17.9103 41.9742 17.5869 41.4931 17.3186C41.2782 17.1981 41.0556 17.0701 40.8405 16.9493C41.2663 16.9803 40.5438 16.474 40.7222 16.8509C40.4902 16.6971 40.2826 16.6812 40.0462 16.5716C40.0003 16.5504 39.9596 16.529 39.9187 16.5069C39.8216 16.4541 39.727 16.3986 39.5675 16.3422C39.1622 16.1977 38.6861 16.1772 38.6103 15.9699C38.112 15.8781 37.6861 15.7439 37.4823 15.8782C37.3534 15.8681 37.0338 15.7316 36.8878 15.7055C36.7641 15.6746 35.8614 15.5864 35.5706 15.5867C35.5429 15.5859 35.5207 15.5854 35.5053 15.5852C35.3262 15.5828 35.0127 15.5801 34.8619 15.5944C34.6724 15.612 34.54 15.7804 34.2026 15.5835C33.8104 15.5994 33.6706 15.5938 33.3058 15.5709C33.2397 15.5668 33.2323 15.5376 33.1937 15.5375C33.1142 15.5375 32.979 15.5591 32.8371 15.5618C32.6037 15.5661 32.4706 15.5046 32.4966 15.5985C32.3427 15.6143 32.1889 15.63 32.0351 15.6458C31.9811 15.6276 31.9272 15.6095 31.8732 15.5914C31.7909 15.6111 31.7087 15.6309 31.6264 15.6506C31.723 15.5147 31.1442 15.5949 31.3321 15.6729C31.0339 15.6448 30.7357 15.6167 30.4375 15.5886C30.4791 15.4341 29.7828 15.5707 29.8414 15.6547C29.8073 15.6546 29.7732 15.6545 29.739 15.6544C29.4403 15.6133 29.166 15.6469 28.8019 15.6193C28.4378 15.5918 28.4719 15.5767 28.3612 15.5057C28.2756 15.5098 28.1899 15.5138 28.1042 15.5179C27.7356 15.6776 27.7226 15.4797 27.3056 15.4855L27.4812 15.31C27.4824 15.4016 27.4936 15.5127 27.5205 15.6514C27.3981 15.8973 27.4624 16.5037 27.4995 16.9057C27.5038 16.9525 27.5276 16.9533 27.5349 17.0156C27.5525 17.1679 27.522 17.5565 27.5986 17.5433C27.5764 17.6778 27.5542 17.8123 27.5321 17.9469C27.546 18.0569 27.5599 18.1668 27.5739 18.2768C27.5978 18.2762 27.6217 18.2757 27.6457 18.2751C27.5641 18.4966 27.5955 18.8445 27.576 19.0162C27.572 19.0503 27.539 19.0577 27.53 19.1639C27.5193 19.288 27.5291 19.5192 27.5188 19.6671C27.5553 19.7246 27.5919 19.7821 27.6284 19.8396C27.6483 20.104 27.5518 20.197 27.5443 20.3523C27.543 20.3802 27.5499 20.8903 27.552 20.9178C27.5683 21.1428 27.6505 21.079 27.6329 21.7298C27.6297 21.8457 27.6013 21.9394 27.6001 22.0441C27.5981 22.2291 27.6626 22.7867 27.7222 22.8305C27.6476 23.0549 27.6781 23.6554 27.6565 23.8322C27.6499 23.8856 27.6024 23.8977 27.5923 24.0617C27.584 24.1947 27.6221 24.5373 27.6157 24.706C27.6088 24.885 27.5688 24.949 27.566 25.0292C27.5634 25.105 27.5956 25.1749 27.5954 25.2782C27.5943 25.6006 27.5424 25.8926 27.5415 26.1475C27.54 26.516 27.6354 26.8416 27.6778 27.15C27.6716 27.2266 27.6511 27.3018 27.6509 27.382C27.6479 28.3748 27.6303 29.4946 27.6099 30.4903C27.6005 30.9526 27.471 32.1021 27.6871 31.7953C27.725 31.9559 27.6378 33.1239 27.6365 33.3461C27.6352 33.5682 27.674 33.7443 27.6745 33.9188C27.6762 34.4457 27.6483 34.8167 27.682 35.458C27.6909 35.6236 27.7368 35.8011 27.7362 35.8992C27.7355 36.0173 27.6911 36.1445 27.6883 36.2975C27.6851 36.4798 27.6871 36.7408 27.689 37L27.3056 36.6166C27.5651 36.6147 27.8228 36.613 27.9979 36.6168C28.0618 36.6183 28.0843 36.6573 28.1757 36.6695C28.5316 36.7171 28.9306 36.713 28.86 36.5885C29.3162 36.6592 29.7382 36.5947 30.161 36.5908C31.0549 36.5827 32.6833 36.6117 33.4621 36.5594C33.9531 36.5264 33.9406 36.4706 34.6635 36.5188C34.824 36.5295 34.9838 36.5439 35.1784 36.5566C35.3127 36.5655 35.4437 36.5806 35.5706 36.5945C35.8668 36.6277 36.1432 36.6442 36.3762 36.5431C36.8693 36.547 37.2533 36.4787 37.6306 36.5282C37.6694 36.4964 37.7077 36.4644 37.7459 36.4322C37.8052 36.4217 37.8641 36.4109 37.9232 36.3995C37.946 36.42 37.9689 36.4405 37.9919 36.461C38.4211 36.3897 38.9267 36.1568 39.2698 36.0465C39.4312 35.9957 39.6631 35.921 39.9215 35.8251C40.5976 35.5846 41.4285 35.1584 41.7869 34.9439C42.0534 34.7893 42.0345 34.7357 42.2406 34.7198C42.2921 34.6732 42.3431 34.626 42.3934 34.5783C42.4135 34.5335 42.4332 34.4886 42.4524 34.4438C42.7267 34.2289 43.0505 33.9803 43.3019 33.7363C43.3334 33.7059 43.3638 33.6756 43.3929 33.6457C43.8798 33.1597 44.4435 32.3002 44.8108 31.7212C44.9056 31.5775 45.0503 31.4095 45.1256 31.257C45.2343 31.0347 45.1884 30.9469 45.3113 30.6611C45.3446 30.5826 45.3838 30.4939 45.426 30.3977C45.6546 29.8935 45.9316 29.1593 46.0109 28.7345C46.0405 28.5852 46.0244 28.51 46.0403 28.4065C46.1052 27.9724 46.1526 27.6134 46.1405 27.1905C46.2495 26.7457 46.3413 26.7869 46.448 26.6487C46.5285 26.5443 46.7083 26.2103 46.7736 26.1609C46.8201 26.1267 46.8796 26.2543 46.9309 26.2066C46.9665 26.7788 46.9056 27.0214 46.7925 27.4752C46.7132 28.3263 46.5478 29.1729 46.2841 29.9906C46.2333 30.0563 46.182 30.1211 46.13 30.1851C46.1299 30.1851 46.1299 30.1851 46.1298 30.1851C46.0405 30.3769 46.0133 30.5077 45.9922 30.6233C45.9804 30.6873 45.9704 30.7459 45.9514 30.8066C45.6671 31.7594 44.8715 33.1643 43.7725 34.2069C43.0048 34.9577 42.1235 35.524 41.4362 35.8856C41.2083 36.0107 40.6418 36.3061 40.1793 36.4818C39.9243 36.5813 39.7043 36.6494 39.6058 36.6648C39.534 36.676 39.5019 36.6411 39.4292 36.662C38.7906 36.8891 38.1301 37.0575 37.4604 37.1729C36.8361 37.2263 36.2043 37.2595 35.5706 37.2635C34.8036 37.2685 34.0336 37.2879 33.2746 37.2936C31.2749 37.3086 29.2859 37.3253 27.3056 37.336L26.9743 37.3406L26.9696 37C26.9604 35.295 26.9557 33.5964 26.9605 31.9029C26.9625 31.1955 26.9303 30.2977 26.9511 29.6052C26.9597 29.3161 27.0289 29.1957 26.9773 28.816C26.996 28.812 27.0146 28.808 27.0332 28.804C27.0107 28.4727 26.9683 28.2609 26.964 27.8894C26.9605 27.5766 26.9577 26.7488 26.9648 26.4724C26.9684 26.329 27.0032 26.3824 27.003 26.2487C27.0025 26.0199 26.9543 25.5308 26.9543 25.215C26.9543 24.9289 26.9944 24.4466 26.9886 24.2267C26.968 23.4345 26.9085 22.5717 26.9245 21.7276C26.929 21.4944 26.9741 21.1944 26.9729 21.1214C26.9702 20.9788 26.9264 20.9363 26.9207 20.8405C26.8923 20.3538 26.9444 19.5951 26.9464 19.118C26.9518 17.8751 26.9407 16.5732 26.9401 15.31L26.9352 14.9496L27.3056 14.9445C27.6223 14.9443 27.9366 14.9449 28.2469 14.9465C29.2248 14.9515 30.8499 14.9438 31.7527 14.9768C31.9474 14.9839 31.8955 15.032 32.059 15.032C32.2403 15.032 32.3384 14.9995 32.4231 14.9969C33.0095 14.9785 34.3039 14.9457 34.8574 14.9789C34.9629 14.9853 35.0394 15.0229 35.1025 15.0228C35.1345 15.0228 35.2067 14.9971 35.307 14.9945C35.3972 14.9921 35.4849 14.9901 35.5706 14.9885C36.343 14.9774 36.9591 15.0313 37.7478 15.1616C38.5351 15.2945 39.3742 15.503 40.1894 15.8231C41.1115 16.1755 42.0101 16.663 42.7643 17.257C43.0743 17.5004 43.2253 17.7369 43.2669 17.7719C43.3576 17.8508 43.4496 17.8642 43.6353 18.0254C43.6753 18.0604 43.7155 18.0969 43.756 18.1346C44.3474 18.6698 44.9281 19.5055 45.3109 20.1195C45.5188 20.4408 45.8166 20.8826 45.9813 21.2253C46.0284 21.3217 46.0906 21.4683 46.151 21.6234C46.2628 21.9066 46.3634 22.2201 46.4068 22.2973C46.448 22.3699 46.5112 22.39 46.5464 22.4825ZM39.3373 16.2193C39.413 16.1502 38.8833 16.0637 39.0607 16.1661C39.1007 16.1882 39.318 16.236 39.3373 16.2193ZM27.4992 28.7106C27.524 28.7056 27.5487 28.7006 27.5735 28.6956C27.5632 28.6238 27.5529 28.552 27.5426 28.4802C27.5277 28.5206 27.5128 28.5609 27.498 28.6013C27.4984 28.6377 27.4988 28.6741 27.4992 28.7106ZM41.7105 28.3351C41.7157 28.2824 41.7624 28.2157 41.7759 28.1543C41.8315 27.8978 41.8681 27.8045 41.912 27.5686C41.9907 27.219 41.9824 26.1581 42.1988 26.155C42.1988 26.155 42.1988 26.155 42.1988 26.155C42.201 26.155 42.2033 26.1551 42.2055 26.1553C42.2485 26.1591 42.295 26.2517 42.3434 26.2659C42.3917 26.2803 42.7058 26.2721 42.7211 26.4088C42.7431 26.6072 42.6361 27.0758 42.6287 27.1799C42.6253 27.2516 42.6456 27.3422 42.6409 27.4347C42.6247 27.7326 42.5821 27.8826 42.6126 28.162C42.5537 28.2615 42.4932 28.3594 42.4312 28.4558C42.4214 28.5969 42.319 28.7904 42.3 28.8725C42.2847 28.9403 42.3051 28.9882 42.2867 29.0586C42.2661 29.1378 42.1975 29.2477 42.156 29.3897C42.1516 29.4045 42.1478 29.4185 42.1445 29.432C42.0954 29.6301 42.1483 29.6994 42.1086 29.8326C42.0642 29.9804 41.9301 30.1819 41.8721 30.371C41.8699 30.3972 41.8676 30.4233 41.865 30.4496C41.8916 30.4429 41.9182 30.4361 41.9448 30.429C41.91 30.5235 41.8522 30.5429 41.8094 30.6237C41.7587 30.7186 41.7676 30.7865 41.7315 30.8502C41.7019 30.9024 41.633 30.956 41.5946 31.023C41.5381 31.1206 41.5907 31.1245 41.5654 31.181C41.5586 31.2051 41.3214 31.5931 41.3028 31.612C41.1857 31.7688 41.124 31.7413 41.021 31.856C40.9699 31.9123 40.9191 31.9694 40.8684 32.0266C40.6346 32.2914 40.3973 32.5617 40.1477 32.7778C40.0126 32.8952 39.8581 33.0013 39.7036 33.0898C39.8425 32.8022 39.2659 33.0216 39.594 33.1183C39.4086 33.191 39.3229 33.3201 39.1516 33.3969C39.0408 33.4456 38.9509 33.451 38.7963 33.5228C38.721 33.5576 38.6463 33.5985 38.5737 33.6366C38.3823 33.7385 38.2024 33.818 38.1008 33.711C37.7755 33.8546 37.4648 33.8565 37.3743 34.0418C37.2859 34.0719 37.0379 34.0197 36.9365 34.0214C36.8394 34.0327 36.1084 34.0615 35.9904 34.0561C35.8741 34.0593 35.6728 34.0607 35.5706 34.0735C35.5685 34.0738 35.5665 34.0741 35.5644 34.0744C35.4425 34.092 35.3573 34.2604 35.1403 34.0635C34.8879 34.0794 34.798 34.0738 34.5633 34.0509C34.5208 34.0468 34.516 34.0176 34.4911 34.0175C34.44 34.0175 34.353 34.0391 34.2617 34.0418C34.1116 34.0461 34.0259 33.9846 34.0426 34.0785C33.9437 34.0943 33.8447 34.11 33.7457 34.1258C33.711 34.1076 33.6763 34.0895 33.6415 34.0714C33.5886 34.0911 33.5357 34.1109 33.4828 34.1306C33.5449 33.9947 33.1725 34.0749 33.2934 34.1529C33.1016 34.1248 32.9097 34.0967 32.7179 34.0686C32.7446 33.9141 32.2966 34.0507 32.3343 34.1347C32.3124 34.1346 32.2904 34.1345 32.2685 34.1344C32.0763 34.0933 31.8998 34.1269 31.6655 34.0993C31.4313 34.0718 31.4532 34.0567 31.382 33.9857C31.3732 33.9863 31.3644 33.987 31.3556 33.9876L31.1539 33.9833L31.158 33.79C31.1546 33.7437 31.1512 33.6973 31.1477 33.651C30.9529 33.3618 31.2902 33.4129 31.1408 32.9176C31.2632 32.7593 31.1989 32.3692 31.1618 32.1106C31.1575 32.0805 31.1337 32.08 31.1264 32.0399C31.1087 31.9419 31.1393 31.6918 31.0626 31.7004C31.0848 31.6138 31.107 31.5273 31.1292 31.4407C31.1152 31.3699 31.1013 31.2992 31.0874 31.2284C31.0634 31.2288 31.0395 31.2291 31.0156 31.2295C31.0971 31.087 31.0658 30.8632 31.0853 30.7527C31.0892 30.7308 31.1222 30.726 31.1313 30.6577C31.1419 30.5778 31.1322 30.4291 31.1425 30.3339C31.1059 30.2969 31.0694 30.2599 31.0328 30.223C31.013 30.0528 31.1095 29.993 31.117 29.8931C31.1183 29.8751 31.1113 29.5469 31.1093 29.5293C31.0929 29.3845 31.0107 29.4255 31.0283 29.0068C31.0315 28.9323 31.06 28.872 31.0611 28.8046C31.0632 28.6856 30.9987 28.3269 30.9391 28.2986C31.0137 28.1543 30.9832 27.7679 31.0047 27.6542C31.0114 27.6198 31.0589 27.6121 31.069 27.5065C31.0772 27.4209 31.0392 27.2005 31.0456 27.092C31.0525 26.9768 31.0924 26.9357 31.0952 26.884C31.0979 26.8353 31.0656 26.7903 31.0658 26.7239C31.0669 26.5164 31.1188 26.3285 31.1198 26.1646C31.1213 25.9274 31.0259 25.718 30.9835 25.5196C30.9897 25.4703 31.0102 25.4219 31.0103 25.3703C31.0133 24.7316 31.0309 24.0111 31.0514 23.3704C31.0607 23.073 31.1903 22.3335 30.9741 22.5309C30.9363 22.4275 31.0234 21.676 31.0247 21.5331C31.026 21.3902 30.9873 21.2769 30.9867 21.1646C30.985 20.8256 31.013 20.5869 30.9792 20.1743C30.9704 20.0678 30.9245 19.9536 30.925 19.8905C30.9258 19.8145 30.9702 19.7327 30.973 19.6342C30.9794 19.3995 30.9648 18.962 30.9724 18.7368C30.9739 18.6957 31.0129 18.6813 31.0251 18.6225C31.0322 18.5886 31.0381 18.554 31.0426 18.52L31.0494 18.2005L31.3556 18.207C31.5515 18.2332 31.7321 18.2145 31.6934 18.1085C31.987 18.1792 32.2585 18.1147 32.5305 18.1107C33.1056 18.1027 34.1533 18.1317 34.6544 18.0794C34.9703 18.0464 34.9622 17.9906 35.4273 18.0388C35.4745 18.0437 35.5215 18.0493 35.5706 18.0552C35.6321 18.0623 35.6964 18.0702 35.7675 18.0786C36.0761 18.1147 36.345 18.2381 36.5916 18.1407C36.9284 18.2111 37.205 18.2384 37.4295 18.3979C37.4643 18.3796 37.4992 18.3615 37.5345 18.3438C37.5758 18.353 37.6169 18.3625 37.6581 18.3725C37.6648 18.3994 37.6713 18.4262 37.6778 18.453C37.9573 18.5316 38.3394 18.5628 38.5809 18.6603C38.586 18.6622 38.5926 18.6649 38.5991 18.6676C39.0098 18.8113 39.9545 19.4275 40.228 19.7376C40.3808 19.8916 40.4242 19.8636 40.4408 20.0256C40.4807 20.0532 40.5202 20.0814 40.5596 20.1101C40.5974 20.1147 40.6354 20.1198 40.6734 20.1253C40.7321 20.1852 40.7903 20.252 40.8469 20.3219C40.978 20.4788 41.1021 20.6576 41.2131 20.8052C41.5084 21.183 41.9201 21.7901 42.0597 22.254C42.0964 22.3694 42.1051 22.5261 42.1449 22.6354C42.1819 22.7374 42.2307 22.7795 42.2796 22.851C42.3061 22.8867 42.3341 22.9362 42.3582 23.0108C42.4806 23.3683 42.5398 24.0643 42.5929 24.4061C42.6103 24.5079 42.6462 24.5516 42.6587 24.6224C42.7104 24.9185 42.7294 25.1632 42.7916 25.4478C42.7303 25.7601 42.6275 25.7354 42.5306 25.8322C42.4573 25.9057 42.2843 26.1218 42.2177 26.1513C42.1712 26.1724 42.1113 26.0938 42.0602 26.1235C42.017 25.7753 42.0555 25.6306 42.1095 25.3424C42.0713 24.8197 41.9964 24.3014 41.8751 23.7964C41.8915 23.7442 41.9074 23.6913 41.9228 23.6383C41.9229 23.6383 41.9229 23.6383 41.923 23.6383C41.9043 23.4347 41.81 23.3722 41.7635 23.2743C41.7308 23.2063 41.697 23.1332 41.6619 23.0566C41.3785 22.3945 40.9501 21.459 40.3442 20.7782C40.0456 20.4215 39.7228 20.1299 39.4411 19.9259C39.2536 19.7705 38.5478 19.433 38.4076 19.3377C38.3731 19.3102 38.3783 19.2665 38.3376 19.2467C38.3363 19.2462 38.3359 19.246 38.3355 19.2458C37.9455 19.1111 37.5432 19.0185 37.1368 18.9629C36.6388 18.8206 36.1025 18.7785 35.5706 18.791C35.2236 18.7988 34.8769 18.8096 34.5337 18.8136C33.4699 18.826 32.4108 18.8396 31.3556 18.85L31.6856 18.52C31.6986 19.8396 31.7065 21.153 31.7008 22.4616C31.6987 22.9168 31.731 23.4944 31.7102 23.9399C31.7015 24.1259 31.6324 24.2034 31.6839 24.4477C31.6653 24.4502 31.6467 24.4528 31.628 24.4554C31.6505 24.6686 31.6929 24.8048 31.6972 25.0438C31.7008 25.2451 31.7036 25.7777 31.6964 25.9555C31.6929 26.0478 31.6581 26.0134 31.6582 26.0994C31.6588 26.2467 31.7069 26.5613 31.7069 26.7645C31.7069 26.9486 31.6668 27.2589 31.6726 27.4004C31.6933 27.91 31.7527 28.4652 31.7368 29.0083C31.7323 29.1583 31.6871 29.3513 31.6884 29.3983C31.691 29.49 31.7349 29.5174 31.7405 29.579C31.769 29.8922 31.7169 30.3803 31.7148 30.6872C31.7081 31.6874 31.7272 32.747 31.7191 33.7428C31.719 33.7583 31.7189 33.774 31.7188 33.79L31.3556 33.4268C31.9888 33.4312 32.9975 33.4246 33.5641 33.4568C33.6893 33.4639 33.6559 33.512 33.7611 33.512C33.8777 33.512 33.9409 33.4795 33.9954 33.4769C34.3726 33.4585 35.2054 33.4257 35.5616 33.4589C35.5646 33.4592 35.5676 33.4595 35.5706 33.4599C35.6318 33.4686 35.6771 33.5024 35.7148 33.5017C35.7347 33.5013 35.7793 33.4749 35.8414 33.4704C36.3895 33.4275 36.787 33.3964 37.31 33.2893C37.6364 33.2201 37.9721 33.1151 38.2997 32.9747C38.9828 32.6886 39.6218 32.2549 40.1392 31.7631C40.2271 31.6803 40.3118 31.6213 40.3766 31.5798C40.4358 31.5417 40.478 31.5186 40.4881 31.5065C40.5342 31.4505 40.5268 31.3834 40.6074 31.2623C40.8783 30.8641 41.2513 30.3253 41.4087 29.8861C41.4772 29.7032 41.5241 29.4464 41.5676 29.2403C41.5763 29.2023 41.5842 29.168 41.5923 29.1359C41.6392 28.9642 41.7703 28.5615 41.7586 28.4769C41.753 28.4259 41.705 28.3927 41.7105 28.3351ZM38.6136 33.5572C38.6131 33.5258 38.5777 33.5287 38.5362 33.5456C38.4557 33.5789 38.3472 33.6655 38.4448 33.6607C38.4642 33.6597 38.5202 33.6328 38.5624 33.6052C38.5907 33.5866 38.6138 33.5672 38.6136 33.5572ZM31.162 24.5155C31.1373 24.5187 31.1125 24.522 31.0878 24.5252C31.0981 24.5714 31.1084 24.6175 31.1187 24.6637C31.1336 24.6378 31.1484 24.6118 31.1633 24.5858C31.1629 24.5624 31.1624 24.539 31.162 24.5155Z" fill="#BF95F9" fill-opacity="0.1"/>
</g>
<defs>
<filter id="filter0_d_3_11" x="0.650341" y="0.61908" width="58.6967" height="58.7743" filterUnits="userSpaceOnUse" color-interpolation-filters="sRGB">
<feFlood flood-opacity="0" result="BackgroundImageFix"/>
<feColorMatrix in="SourceAlpha" type="matrix" values="0 0 0 0 0 0 0 0 0 0 0 0 0 0 0 0 0 0 127 0" result="hardAlpha"/>
<feOffset dy="4"/>
<feGaussianBlur stdDeviation="2"/>
<feComposite in2="hardAlpha" operator="out"/>
<feColorMatrix type="matrix" values="0 0 0 0 0 0 0 0 0 0 0 0 0 0 0 0 0 0 0.25 0"/>
<feBlend mode="normal" in2="BackgroundImageFix" result="effect1_dropShadow_3_11"/>
<feBlend mode="normal" in="SourceGraphic" in2="effect1_dropShadow_3_11" result="shape"/>
</filter>
</defs>
</svg>
