<svg width="211" height="50" viewBox="0 0 211 50" fill="none" xmlns="http://www.w3.org/2000/svg">
<path d="M40 0H10C4.47715 0 0 4.47715 0 10V40C0 45.5228 4.47715 50 10 50H40C45.5228 50 50 45.5228 50 40V10C50 4.47715 45.5228 0 40 0Z" fill="#A56EF7"/>
<path d="M17.68 28.29C17.68 29.51 17.53 30.61 17.23 31.59C16.93 32.57 16.48 33.405 15.88 34.095C15.29 34.785 14.55 35.315 13.66 35.685C12.77 36.055 11.735 36.24 10.555 36.24C10.015 36.24 9.485 36.205 8.965 36.135C8.445 36.075 7.9 35.975 7.33 35.835C7.36 35.435 7.395 35.035 7.435 34.635C7.475 34.235 7.51 33.835 7.54 33.435C7.57 33.215 7.655 33.04 7.795 32.91C7.945 32.77 8.155 32.7 8.425 32.7C8.595 32.7 8.815 32.735 9.085 32.805C9.365 32.875 9.715 32.91 10.135 32.91C10.705 32.91 11.21 32.83 11.65 32.67C12.09 32.5 12.455 32.235 12.745 31.875C13.045 31.515 13.27 31.05 13.42 30.48C13.57 29.9 13.645 29.2 13.645 28.38V14.31H17.68V28.29ZM41.5656 25.155C41.5656 26.745 41.3006 28.205 40.7706 29.535C40.2406 30.865 39.4956 32.01 38.5356 32.97C37.5756 33.93 36.4206 34.675 35.0706 35.205C33.7206 35.735 32.2206 36 30.5706 36H22.3056V14.31H30.5706C32.2206 14.31 33.7206 14.58 35.0706 15.12C36.4206 15.65 37.5756 16.395 38.5356 17.355C39.4956 18.305 40.2406 19.445 40.7706 20.775C41.3006 22.105 41.5656 23.565 41.5656 25.155ZM37.4256 25.155C37.4256 23.965 37.2656 22.9 36.9456 21.96C36.6356 21.01 36.1806 20.21 35.5806 19.56C34.9906 18.9 34.2706 18.395 33.4206 18.045C32.5806 17.695 31.6306 17.52 30.5706 17.52H26.3556V32.79H30.5706C31.6306 32.79 32.5806 32.615 33.4206 32.265C34.2706 31.915 34.9906 31.415 35.5806 30.765C36.1806 30.105 36.6356 29.305 36.9456 28.365C37.2656 27.415 37.4256 26.345 37.4256 25.155Z" fill="white"/>
<path d="M63.928 27.664C63.928 28.64 63.804 29.528 63.556 30.328C63.316 31.128 62.948 31.816 62.452 32.392C61.964 32.96 61.348 33.404 60.604 33.724C59.86 34.036 58.984 34.192 57.976 34.192C57.52 34.192 57.068 34.168 56.62 34.12C56.18 34.072 55.72 33.992 55.24 33.88L55.456 31.516C55.48 31.308 55.564 31.14 55.708 31.012C55.852 30.884 56.056 30.82 56.32 30.82C56.456 30.82 56.624 30.844 56.824 30.892C57.024 30.932 57.264 30.952 57.544 30.952C57.936 30.952 58.276 30.9 58.564 30.796C58.86 30.684 59.104 30.504 59.296 30.256C59.488 30 59.632 29.668 59.728 29.26C59.824 28.852 59.872 28.348 59.872 27.748V16.516H63.928V27.664ZM72.0976 21.364C73.0416 21.364 73.9016 21.512 74.6776 21.808C75.4536 22.104 76.1176 22.528 76.6696 23.08C77.2296 23.632 77.6616 24.304 77.9656 25.096C78.2776 25.88 78.4336 26.764 78.4336 27.748C78.4336 28.74 78.2776 29.636 77.9656 30.436C77.6616 31.228 77.2296 31.904 76.6696 32.464C76.1176 33.016 75.4536 33.444 74.6776 33.748C73.9016 34.044 73.0416 34.192 72.0976 34.192C71.1456 34.192 70.2776 34.044 69.4936 33.748C68.7176 33.444 68.0456 33.016 67.4776 32.464C66.9176 31.904 66.4816 31.228 66.1696 30.436C65.8656 29.636 65.7136 28.74 65.7136 27.748C65.7136 26.764 65.8656 25.88 66.1696 25.096C66.4816 24.304 66.9176 23.632 67.4776 23.08C68.0456 22.528 68.7176 22.104 69.4936 21.808C70.2776 21.512 71.1456 21.364 72.0976 21.364ZM72.0976 31.432C72.9536 31.432 73.5816 31.132 73.9816 30.532C74.3896 29.924 74.5936 29.004 74.5936 27.772C74.5936 26.54 74.3896 25.624 73.9816 25.024C73.5816 24.424 72.9536 24.124 72.0976 24.124C71.2176 24.124 70.5736 24.424 70.1656 25.024C69.7576 25.624 69.5536 26.54 69.5536 27.772C69.5536 29.004 69.7576 29.924 70.1656 30.532C70.5736 31.132 71.2176 31.432 72.0976 31.432ZM84.0269 30.616C84.3069 30.92 84.6109 31.136 84.9389 31.264C85.2669 31.392 85.5989 31.456 85.9349 31.456C86.2869 31.456 86.6109 31.392 86.9069 31.264C87.2029 31.128 87.4549 30.912 87.6629 30.616C87.8789 30.312 88.0469 29.916 88.1669 29.428C88.2869 28.932 88.3469 28.324 88.3469 27.604C88.3469 26.98 88.2989 26.452 88.2029 26.02C88.1149 25.58 87.9789 25.224 87.7949 24.952C87.6189 24.672 87.3949 24.472 87.1229 24.352C86.8589 24.224 86.5549 24.16 86.2109 24.16C85.7549 24.16 85.3589 24.26 85.0229 24.46C84.6869 24.66 84.3549 24.952 84.0269 25.336V30.616ZM84.0269 22.876C84.5069 22.42 85.0309 22.056 85.5989 21.784C86.1749 21.504 86.8149 21.364 87.5189 21.364C88.2229 21.364 88.8629 21.508 89.4389 21.796C90.0149 22.084 90.5069 22.496 90.9149 23.032C91.3229 23.56 91.6349 24.2 91.8509 24.952C92.0749 25.704 92.1869 26.544 92.1869 27.472C92.1869 28.48 92.0589 29.396 91.8029 30.22C91.5469 31.044 91.1829 31.752 90.7109 32.344C90.2469 32.928 89.6909 33.384 89.0429 33.712C88.3949 34.032 87.6789 34.192 86.8949 34.192C86.5189 34.192 86.1829 34.156 85.8869 34.084C85.5909 34.012 85.3189 33.912 85.0709 33.784C84.8229 33.648 84.5949 33.488 84.3869 33.304C84.1869 33.12 83.9909 32.92 83.7989 32.704L83.6669 33.328C83.6029 33.584 83.4989 33.76 83.3549 33.856C83.2109 33.952 83.0189 34 82.7789 34H80.3069V16.036H84.0269V22.876ZM115.939 25.252C115.939 26.516 115.719 27.684 115.279 28.756C114.847 29.82 114.235 30.744 113.443 31.528C112.651 32.304 111.695 32.912 110.575 33.352C109.463 33.784 108.227 34 106.867 34H100.075V16.516H106.867C108.227 16.516 109.463 16.736 110.575 17.176C111.695 17.616 112.651 18.224 113.443 19C114.235 19.776 114.847 20.7 115.279 21.772C115.719 22.836 115.939 23.996 115.939 25.252ZM111.787 25.252C111.787 24.388 111.675 23.608 111.451 22.912C111.227 22.216 110.903 21.628 110.479 21.148C110.063 20.66 109.551 20.288 108.943 20.032C108.335 19.768 107.643 19.636 106.867 19.636H104.155V30.88H106.867C107.643 30.88 108.335 30.752 108.943 30.496C109.551 30.232 110.063 29.86 110.479 29.38C110.903 28.892 111.227 28.3 111.451 27.604C111.675 26.908 111.787 26.124 111.787 25.252ZM121.517 21.556V34H117.797V21.556H121.517ZM121.901 18.148C121.901 18.444 121.841 18.724 121.721 18.988C121.601 19.244 121.437 19.472 121.229 19.672C121.021 19.864 120.777 20.02 120.497 20.14C120.225 20.252 119.933 20.308 119.621 20.308C119.317 20.308 119.033 20.252 118.769 20.14C118.505 20.02 118.269 19.864 118.061 19.672C117.861 19.472 117.701 19.244 117.581 18.988C117.469 18.724 117.413 18.444 117.413 18.148C117.413 17.844 117.469 17.56 117.581 17.296C117.701 17.032 117.861 16.8 118.061 16.6C118.269 16.4 118.505 16.244 118.769 16.132C119.033 16.02 119.317 15.964 119.621 15.964C119.933 15.964 120.225 16.02 120.497 16.132C120.777 16.244 121.021 16.4 121.229 16.6C121.437 16.8 121.601 17.032 121.721 17.296C121.841 17.56 121.901 17.844 121.901 18.148ZM130.532 28.936C129.788 28.968 129.176 29.032 128.696 29.128C128.216 29.224 127.836 29.344 127.556 29.488C127.276 29.632 127.08 29.796 126.968 29.98C126.864 30.164 126.812 30.364 126.812 30.58C126.812 31.004 126.928 31.304 127.16 31.48C127.392 31.648 127.732 31.732 128.18 31.732C128.66 31.732 129.08 31.648 129.44 31.48C129.8 31.312 130.164 31.04 130.532 30.664V28.936ZM123.836 23.284C124.588 22.62 125.42 22.128 126.332 21.808C127.252 21.48 128.236 21.316 129.284 21.316C130.036 21.316 130.712 21.44 131.312 21.688C131.92 21.928 132.432 22.268 132.848 22.708C133.272 23.14 133.596 23.656 133.82 24.256C134.044 24.856 134.156 25.512 134.156 26.224V34H132.452C132.1 34 131.832 33.952 131.648 33.856C131.472 33.76 131.324 33.56 131.204 33.256L130.94 32.572C130.628 32.836 130.328 33.068 130.04 33.268C129.752 33.468 129.452 33.64 129.14 33.784C128.836 33.92 128.508 34.02 128.156 34.084C127.812 34.156 127.428 34.192 127.004 34.192C126.436 34.192 125.92 34.12 125.456 33.976C124.992 33.824 124.596 33.604 124.268 33.316C123.948 33.028 123.7 32.672 123.524 32.248C123.348 31.816 123.26 31.32 123.26 30.76C123.26 30.312 123.372 29.86 123.596 29.404C123.82 28.94 124.208 28.52 124.76 28.144C125.312 27.76 126.056 27.44 126.992 27.184C127.928 26.928 129.108 26.784 130.532 26.752V26.224C130.532 25.496 130.38 24.972 130.076 24.652C129.78 24.324 129.356 24.16 128.804 24.16C128.364 24.16 128.004 24.208 127.724 24.304C127.444 24.4 127.192 24.508 126.968 24.628C126.752 24.748 126.54 24.856 126.332 24.952C126.124 25.048 125.876 25.096 125.588 25.096C125.332 25.096 125.116 25.032 124.94 24.904C124.764 24.776 124.62 24.624 124.508 24.448L123.836 23.284ZM140.013 23.476C140.397 22.804 140.837 22.276 141.333 21.892C141.837 21.508 142.413 21.316 143.061 21.316C143.621 21.316 144.077 21.448 144.429 21.712L144.189 24.448C144.149 24.624 144.081 24.744 143.985 24.808C143.897 24.872 143.773 24.904 143.613 24.904C143.549 24.904 143.465 24.9 143.361 24.892C143.257 24.884 143.149 24.876 143.037 24.868C142.925 24.852 142.809 24.84 142.689 24.832C142.577 24.816 142.473 24.808 142.377 24.808C141.833 24.808 141.397 24.952 141.069 25.24C140.749 25.528 140.477 25.928 140.253 26.44V34H136.533V21.556H138.741C138.925 21.556 139.077 21.572 139.197 21.604C139.325 21.636 139.429 21.688 139.509 21.76C139.597 21.824 139.661 21.912 139.701 22.024C139.749 22.136 139.789 22.272 139.821 22.432L140.013 23.476ZM157.518 21.556L150.87 37.228C150.758 37.476 150.622 37.656 150.462 37.768C150.302 37.888 150.046 37.948 149.694 37.948H146.91L149.31 32.908L144.341 21.556H147.63C147.918 21.556 148.138 21.62 148.29 21.748C148.45 21.876 148.566 22.028 148.638 22.204L150.678 27.568C150.87 28.056 151.026 28.556 151.146 29.068C151.234 28.812 151.322 28.556 151.41 28.3C151.498 28.044 151.59 27.792 151.686 27.544L153.534 22.204C153.606 22.02 153.734 21.868 153.918 21.748C154.102 21.62 154.302 21.556 154.518 21.556H157.518ZM170.157 25.096C171.213 25.096 171.973 24.844 172.437 24.34C172.901 23.836 173.133 23.132 173.133 22.228C173.133 21.828 173.073 21.464 172.953 21.136C172.833 20.808 172.649 20.528 172.401 20.296C172.161 20.056 171.853 19.872 171.477 19.744C171.109 19.616 170.669 19.552 170.157 19.552H168.045V25.096H170.157ZM170.157 16.516C171.389 16.516 172.445 16.664 173.325 16.96C174.213 17.248 174.941 17.648 175.509 18.16C176.085 18.672 176.509 19.276 176.781 19.972C177.053 20.668 177.189 21.42 177.189 22.228C177.189 23.1 177.049 23.9 176.769 24.628C176.489 25.356 176.061 25.98 175.485 26.5C174.909 27.02 174.177 27.428 173.289 27.724C172.409 28.012 171.365 28.156 170.157 28.156H168.045V34H163.989V16.516H170.157ZM182.131 23.476C182.515 22.804 182.955 22.276 183.451 21.892C183.955 21.508 184.531 21.316 185.179 21.316C185.739 21.316 186.195 21.448 186.547 21.712L186.307 24.448C186.267 24.624 186.199 24.744 186.103 24.808C186.015 24.872 185.891 24.904 185.731 24.904C185.667 24.904 185.583 24.9 185.479 24.892C185.375 24.884 185.267 24.876 185.155 24.868C185.043 24.852 184.927 24.84 184.807 24.832C184.695 24.816 184.591 24.808 184.495 24.808C183.951 24.808 183.515 24.952 183.187 25.24C182.867 25.528 182.595 25.928 182.371 26.44V34H178.651V21.556H180.859C181.043 21.556 181.195 21.572 181.315 21.604C181.443 21.636 181.547 21.688 181.627 21.76C181.715 21.824 181.779 21.912 181.819 22.024C181.867 22.136 181.907 22.272 181.939 22.432L182.131 23.476ZM193.34 21.364C194.284 21.364 195.144 21.512 195.92 21.808C196.696 22.104 197.36 22.528 197.912 23.08C198.472 23.632 198.904 24.304 199.208 25.096C199.52 25.88 199.676 26.764 199.676 27.748C199.676 28.74 199.52 29.636 199.208 30.436C198.904 31.228 198.472 31.904 197.912 32.464C197.36 33.016 196.696 33.444 195.92 33.748C195.144 34.044 194.284 34.192 193.34 34.192C192.388 34.192 191.52 34.044 190.736 33.748C189.96 33.444 189.288 33.016 188.72 32.464C188.16 31.904 187.724 31.228 187.412 30.436C187.108 29.636 186.956 28.74 186.956 27.748C186.956 26.764 187.108 25.88 187.412 25.096C187.724 24.304 188.16 23.632 188.72 23.08C189.288 22.528 189.96 22.104 190.736 21.808C191.52 21.512 192.388 21.364 193.34 21.364ZM193.34 31.432C194.196 31.432 194.824 31.132 195.224 30.532C195.632 29.924 195.836 29.004 195.836 27.772C195.836 26.54 195.632 25.624 195.224 25.024C194.824 24.424 194.196 24.124 193.34 24.124C192.46 24.124 191.816 24.424 191.408 25.024C191 25.624 190.796 26.54 190.796 27.772C190.796 29.004 191 29.924 191.408 30.532C191.816 31.132 192.46 31.432 193.34 31.432Z" fill="#A56EF7"/>
</svg>
